<?xml version="1.0" encoding="UTF-8" standalone="no"?>
		<svg xmlns:dc="http://purl.org/dc/elements/1.1/" xmlns:cc="http://creativecommons.org/ns#" xmlns:rdf="http://www.w3.org/1999/02/22-rdf-syntax-ns#" xmlns:svg="http://www.w3.org/2000/svg" xmlns="http://www.w3.org/2000/svg" xmlns:sodipodi="http://sodipodi.sourceforge.net/DTD/sodipodi-0.dtd" xmlns:inkscape="http://www.inkscape.org/namespaces/inkscape" width="6501.968503937008" height="7972.440944881891" id="box" version="1.1" inkscape:version="0.48.3.1 r9886" sodipodi:docname="dessin.svg">
			<defs id="defs4"></defs>
			<sodipodi:namedview id="base" pagecolor="#ffffff" bordercolor="#666666" borderopacity="1.0" inkscape:pageopacity="0.0" inkscape:pageshadow="2" inkscape:document-units="mm" inkscape:current-layer="layer1" showgrid="false" fit-margin-top="0" fit-margin-left="0" fit-margin-right="0" fit-margin-bottom="0" units="mm" inkscape:window-maximized="1"></sodipodi:namedview>
			<metadata id="metadata7">
				<rdf:rdf>
					<cc:work rdf:about="">
						<dc:format>image/svg+xml</dc:format>
						<dc:type rdf:resource="http://purl.org/dc/dcmitype/StillImage"></dc:type>
						<dc:title></dc:title>
					</cc:work>
				</rdf:rdf>
			</metadata>
			<g inkscape:label="Calque 1" inkscape:groupmode="layer" id="layer1"><path style="fill:#ffffff;stroke:#ff0000" id="bottom" transform="translate(17.716535433070867,17.716535433070867)" d="m 0,0 71.83070866141733,0 0,17.716535433070867 71.29921259842519,0 0,-17.716535433070867 72.00787401574803,0 0,17.716535433070867 71.29921259842519,0 0,-17.716535433070867 72.00787401574803,0 0,17.716535433070867 71.29921259842519,0 0,-17.716535433070867 72.00787401574803,0 0,17.716535433070867 71.29921259842519,0 0,-17.716535433070867 72.00787401574803,0 0,17.716535433070867 71.29921259842519,0 0,-17.716535433070867 72.00787401574803,0 0,17.716535433070867 71.29921259842519,0 0,-17.716535433070867 72.00787401574803,0 0,17.716535433070867 71.29921259842519,0 0,-17.716535433070867 72.00787401574803,0 0,17.716535433070867 71.29921259842519,0 0,-17.716535433070867 72.00787401574803,0 0,17.716535433070867 71.29921259842519,0 0,-17.716535433070867 72.00787401574803,0 0,17.716535433070867 71.29921259842519,0 0,-17.716535433070867 72.00787401574803,0 0,17.716535433070867 71.29921259842519,0 0,-17.716535433070867 72.00787401574803,0 0,17.716535433070867 71.29921259842519,0 0,-17.716535433070867 72.00787401574803,0 0,17.716535433070867 71.29921259842519,0 0,-17.716535433070867 72.00787401574803,0 0,17.716535433070867 71.29921259842519,0 0,-17.716535433070867 72.00787401574803,0 0,17.716535433070867 71.29921259842519,0 0,-17.716535433070867 72.00787401574803,0 0,17.716535433070867 71.29921259842519,0 0,-17.716535433070867 72.00787401574803,0 0,17.716535433070867 71.29921259842519,0 0,-17.716535433070867 72.00787401574803,0 0,17.716535433070867 71.29921259842519,0 0,-17.716535433070867 72.00787401574803,0 0,17.716535433070867 71.29921259842519,0 0,-17.716535433070867 72.00787401574803,0 0,17.716535433070867 71.29921259842519,0 0,-17.716535433070867 72.00787401574803,0 0,17.716535433070867 71.29921259842519,0 0,-17.716535433070867 72.00787401574803,0 0,17.716535433070867 71.29921259842519,0 0,-17.716535433070867 71.83070866141733,0 0,73.76892792247124 -17.716535433070867,0 0,73.23743185947912 17.716535433070867,0 0,73.94609327680196 -17.716535433070867,0 0,73.23743185947912 17.716535433070867,0 0,73.94609327680196 -17.716535433070867,0 0,73.23743185947912 17.716535433070867,0 0,73.94609327680196 -17.716535433070867,0 0,73.23743185947912 17.716535433070867,0 0,73.94609327680196 -17.716535433070867,0 0,73.23743185947912 17.716535433070867,0 0,73.94609327680196 -17.716535433070867,0 0,73.23743185947912 17.716535433070867,0 0,73.94609327680196 -17.716535433070867,0 0,73.23743185947912 17.716535433070867,0 0,73.94609327680196 -17.716535433070867,0 0,73.23743185947912 17.716535433070867,0 0,73.94609327680196 -17.716535433070867,0 0,73.23743185947912 17.716535433070867,0 0,73.94609327680196 -17.716535433070867,0 0,73.23743185947912 17.716535433070867,0 0,73.94609327680196 -17.716535433070867,0 0,73.23743185947912 17.716535433070867,0 0,73.94609327680196 -17.716535433070867,0 0,73.23743185947912 17.716535433070867,0 0,73.94609327680196 -17.716535433070867,0 0,73.23743185947912 17.716535433070867,0 0,73.94609327680196 -17.716535433070867,0 0,73.23743185947912 17.716535433070867,0 0,73.94609327680196 -17.716535433070867,0 0,73.23743185947912 17.716535433070867,0 0,73.94609327680196 -17.716535433070867,0 0,73.23743185947912 17.716535433070867,0 0,73.94609327680196 -17.716535433070867,0 0,73.23743185947912 17.716535433070867,0 0,73.94609327680196 -17.716535433070867,0 0,73.23743185947912 17.716535433070867,0 0,73.94609327680196 -17.716535433070867,0 0,73.23743185947912 17.716535433070867,0 0,73.76892792247124 -71.83070866141733,0 0,-17.716535433070867 -71.29921259842519,0 0,17.716535433070867 -72.00787401574803,0 0,-17.716535433070867 -71.29921259842519,0 0,17.716535433070867 -72.00787401574803,0 0,-17.716535433070867 -71.29921259842519,0 0,17.716535433070867 -72.00787401574803,0 0,-17.716535433070867 -71.29921259842519,0 0,17.716535433070867 -72.00787401574803,0 0,-17.716535433070867 -71.29921259842519,0 0,17.716535433070867 -72.00787401574803,0 0,-17.716535433070867 -71.29921259842519,0 0,17.716535433070867 -72.00787401574803,0 0,-17.716535433070867 -71.29921259842519,0 0,17.716535433070867 -72.00787401574803,0 0,-17.716535433070867 -71.29921259842519,0 0,17.716535433070867 -72.00787401574803,0 0,-17.716535433070867 -71.29921259842519,0 0,17.716535433070867 -72.00787401574803,0 0,-17.716535433070867 -71.29921259842519,0 0,17.716535433070867 -72.00787401574803,0 0,-17.716535433070867 -71.29921259842519,0 0,17.716535433070867 -72.00787401574803,0 0,-17.716535433070867 -71.29921259842519,0 0,17.716535433070867 -72.00787401574803,0 0,-17.716535433070867 -71.29921259842519,0 0,17.716535433070867 -72.00787401574803,0 0,-17.716535433070867 -71.29921259842519,0 0,17.716535433070867 -72.00787401574803,0 0,-17.716535433070867 -71.29921259842519,0 0,17.716535433070867 -72.00787401574803,0 0,-17.716535433070867 -71.29921259842519,0 0,17.716535433070867 -72.00787401574803,0 0,-17.716535433070867 -71.29921259842519,0 0,17.716535433070867 -72.00787401574803,0 0,-17.716535433070867 -71.29921259842519,0 0,17.716535433070867 -72.00787401574803,0 0,-17.716535433070867 -71.29921259842519,0 0,17.716535433070867 -72.00787401574803,0 0,-17.716535433070867 -71.29921259842519,0 0,17.716535433070867 -72.00787401574803,0 0,-17.716535433070867 -71.29921259842519,0 0,17.716535433070867 -72.00787401574803,0 0,-17.716535433070867 -71.29921259842519,0 0,17.716535433070867 -71.83070866141733,0 0,-73.76892792247124 17.716535433070867,0 0,-73.23743185947912 -17.716535433070867,0 0,-73.94609327680196 17.716535433070867,0 0,-73.23743185947912 -17.716535433070867,0 0,-73.94609327680196 17.716535433070867,0 0,-73.23743185947912 -17.716535433070867,0 0,-73.94609327680196 17.716535433070867,0 0,-73.23743185947912 -17.716535433070867,0 0,-73.94609327680196 17.716535433070867,0 0,-73.23743185947912 -17.716535433070867,0 0,-73.94609327680196 17.716535433070867,0 0,-73.23743185947912 -17.716535433070867,0 0,-73.94609327680196 17.716535433070867,0 0,-73.23743185947912 -17.716535433070867,0 0,-73.94609327680196 17.716535433070867,0 0,-73.23743185947912 -17.716535433070867,0 0,-73.94609327680196 17.716535433070867,0 0,-73.23743185947912 -17.716535433070867,0 0,-73.94609327680196 17.716535433070867,0 0,-73.23743185947912 -17.716535433070867,0 0,-73.94609327680196 17.716535433070867,0 0,-73.23743185947912 -17.716535433070867,0 0,-73.94609327680196 17.716535433070867,0 0,-73.23743185947912 -17.716535433070867,0 0,-73.94609327680196 17.716535433070867,0 0,-73.23743185947912 -17.716535433070867,0 0,-73.94609327680196 17.716535433070867,0 0,-73.23743185947912 -17.716535433070867,0 0,-73.94609327680196 17.716535433070867,0 0,-73.23743185947912 -17.716535433070867,0 0,-73.94609327680196 17.716535433070867,0 0,-73.23743185947912 -17.716535433070867,0 0,-73.94609327680196 17.716535433070867,0 0,-73.23743185947912 -17.716535433070867,0 0,-73.94609327680196 17.716535433070867,0 0,-73.23743185947912 -17.716535433070867,0 0,-73.94609327680196 17.716535433070867,0 0,-73.23743185947912 -17.716535433070867,0 0,-73.76892792247124 z"></path><path style="fill:#ffffff;stroke:#ff0000" id="top" transform="translate(3259.8425196850394,17.716535433070867)" d="m 0,0 71.83070866141733,0 0,17.716535433070867 71.29921259842519,0 0,-17.716535433070867 72.00787401574803,0 0,17.716535433070867 71.29921259842519,0 0,-17.716535433070867 72.00787401574803,0 0,17.716535433070867 71.29921259842519,0 0,-17.716535433070867 72.00787401574803,0 0,17.716535433070867 71.29921259842519,0 0,-17.716535433070867 72.00787401574803,0 0,17.716535433070867 71.29921259842519,0 0,-17.716535433070867 72.00787401574803,0 0,17.716535433070867 71.29921259842519,0 0,-17.716535433070867 72.00787401574803,0 0,17.716535433070867 71.29921259842519,0 0,-17.716535433070867 72.00787401574803,0 0,17.716535433070867 71.29921259842519,0 0,-17.716535433070867 72.00787401574803,0 0,17.716535433070867 71.29921259842519,0 0,-17.716535433070867 72.00787401574803,0 0,17.716535433070867 71.29921259842519,0 0,-17.716535433070867 72.00787401574803,0 0,17.716535433070867 71.29921259842519,0 0,-17.716535433070867 72.00787401574803,0 0,17.716535433070867 71.29921259842519,0 0,-17.716535433070867 72.00787401574803,0 0,17.716535433070867 71.29921259842519,0 0,-17.716535433070867 72.00787401574803,0 0,17.716535433070867 71.29921259842519,0 0,-17.716535433070867 72.00787401574803,0 0,17.716535433070867 71.29921259842519,0 0,-17.716535433070867 72.00787401574803,0 0,17.716535433070867 71.29921259842519,0 0,-17.716535433070867 72.00787401574803,0 0,17.716535433070867 71.29921259842519,0 0,-17.716535433070867 72.00787401574803,0 0,17.716535433070867 71.29921259842519,0 0,-17.716535433070867 72.00787401574803,0 0,17.716535433070867 71.29921259842519,0 0,-17.716535433070867 72.00787401574803,0 0,17.716535433070867 71.29921259842519,0 0,-17.716535433070867 72.00787401574803,0 0,17.716535433070867 71.29921259842519,0 0,-17.716535433070867 72.00787401574803,0 0,17.716535433070867 71.29921259842519,0 0,-17.716535433070867 71.83070866141733,0 0,73.76892792247124 -17.716535433070867,0 0,73.23743185947912 17.716535433070867,0 0,73.94609327680196 -17.716535433070867,0 0,73.23743185947912 17.716535433070867,0 0,73.94609327680196 -17.716535433070867,0 0,73.23743185947912 17.716535433070867,0 0,73.94609327680196 -17.716535433070867,0 0,73.23743185947912 17.716535433070867,0 0,73.94609327680196 -17.716535433070867,0 0,73.23743185947912 17.716535433070867,0 0,73.94609327680196 -17.716535433070867,0 0,73.23743185947912 17.716535433070867,0 0,73.94609327680196 -17.716535433070867,0 0,73.23743185947912 17.716535433070867,0 0,73.94609327680196 -17.716535433070867,0 0,73.23743185947912 17.716535433070867,0 0,73.94609327680196 -17.716535433070867,0 0,73.23743185947912 17.716535433070867,0 0,73.94609327680196 -17.716535433070867,0 0,73.23743185947912 17.716535433070867,0 0,73.94609327680196 -17.716535433070867,0 0,73.23743185947912 17.716535433070867,0 0,73.94609327680196 -17.716535433070867,0 0,73.23743185947912 17.716535433070867,0 0,73.94609327680196 -17.716535433070867,0 0,73.23743185947912 17.716535433070867,0 0,73.94609327680196 -17.716535433070867,0 0,73.23743185947912 17.716535433070867,0 0,73.94609327680196 -17.716535433070867,0 0,73.23743185947912 17.716535433070867,0 0,73.94609327680196 -17.716535433070867,0 0,73.23743185947912 17.716535433070867,0 0,73.94609327680196 -17.716535433070867,0 0,73.23743185947912 17.716535433070867,0 0,73.94609327680196 -17.716535433070867,0 0,73.23743185947912 17.716535433070867,0 0,73.94609327680196 -17.716535433070867,0 0,73.23743185947912 17.716535433070867,0 0,73.76892792247124 -71.83070866141733,0 0,-17.716535433070867 -71.29921259842519,0 0,17.716535433070867 -72.00787401574803,0 0,-17.716535433070867 -71.29921259842519,0 0,17.716535433070867 -72.00787401574803,0 0,-17.716535433070867 -71.29921259842519,0 0,17.716535433070867 -72.00787401574803,0 0,-17.716535433070867 -71.29921259842519,0 0,17.716535433070867 -72.00787401574803,0 0,-17.716535433070867 -71.29921259842519,0 0,17.716535433070867 -72.00787401574803,0 0,-17.716535433070867 -71.29921259842519,0 0,17.716535433070867 -72.00787401574803,0 0,-17.716535433070867 -71.29921259842519,0 0,17.716535433070867 -72.00787401574803,0 0,-17.716535433070867 -71.29921259842519,0 0,17.716535433070867 -72.00787401574803,0 0,-17.716535433070867 -71.29921259842519,0 0,17.716535433070867 -72.00787401574803,0 0,-17.716535433070867 -71.29921259842519,0 0,17.716535433070867 -72.00787401574803,0 0,-17.716535433070867 -71.29921259842519,0 0,17.716535433070867 -72.00787401574803,0 0,-17.716535433070867 -71.29921259842519,0 0,17.716535433070867 -72.00787401574803,0 0,-17.716535433070867 -71.29921259842519,0 0,17.716535433070867 -72.00787401574803,0 0,-17.716535433070867 -71.29921259842519,0 0,17.716535433070867 -72.00787401574803,0 0,-17.716535433070867 -71.29921259842519,0 0,17.716535433070867 -72.00787401574803,0 0,-17.716535433070867 -71.29921259842519,0 0,17.716535433070867 -72.00787401574803,0 0,-17.716535433070867 -71.29921259842519,0 0,17.716535433070867 -72.00787401574803,0 0,-17.716535433070867 -71.29921259842519,0 0,17.716535433070867 -72.00787401574803,0 0,-17.716535433070867 -71.29921259842519,0 0,17.716535433070867 -72.00787401574803,0 0,-17.716535433070867 -71.29921259842519,0 0,17.716535433070867 -72.00787401574803,0 0,-17.716535433070867 -71.29921259842519,0 0,17.716535433070867 -72.00787401574803,0 0,-17.716535433070867 -71.29921259842519,0 0,17.716535433070867 -71.83070866141733,0 0,-73.76892792247124 17.716535433070867,0 0,-73.23743185947912 -17.716535433070867,0 0,-73.94609327680196 17.716535433070867,0 0,-73.23743185947912 -17.716535433070867,0 0,-73.94609327680196 17.716535433070867,0 0,-73.23743185947912 -17.716535433070867,0 0,-73.94609327680196 17.716535433070867,0 0,-73.23743185947912 -17.716535433070867,0 0,-73.94609327680196 17.716535433070867,0 0,-73.23743185947912 -17.716535433070867,0 0,-73.94609327680196 17.716535433070867,0 0,-73.23743185947912 -17.716535433070867,0 0,-73.94609327680196 17.716535433070867,0 0,-73.23743185947912 -17.716535433070867,0 0,-73.94609327680196 17.716535433070867,0 0,-73.23743185947912 -17.716535433070867,0 0,-73.94609327680196 17.716535433070867,0 0,-73.23743185947912 -17.716535433070867,0 0,-73.94609327680196 17.716535433070867,0 0,-73.23743185947912 -17.716535433070867,0 0,-73.94609327680196 17.716535433070867,0 0,-73.23743185947912 -17.716535433070867,0 0,-73.94609327680196 17.716535433070867,0 0,-73.23743185947912 -17.716535433070867,0 0,-73.94609327680196 17.716535433070867,0 0,-73.23743185947912 -17.716535433070867,0 0,-73.94609327680196 17.716535433070867,0 0,-73.23743185947912 -17.716535433070867,0 0,-73.94609327680196 17.716535433070867,0 0,-73.23743185947912 -17.716535433070867,0 0,-73.94609327680196 17.716535433070867,0 0,-73.23743185947912 -17.716535433070867,0 0,-73.94609327680196 17.716535433070867,0 0,-73.23743185947912 -17.716535433070867,0 0,-73.94609327680196 17.716535433070867,0 0,-73.23743185947912 -17.716535433070867,0 0,-73.94609327680196 17.716535433070867,0 0,-73.23743185947912 -17.716535433070867,0 0,-73.76892792247124 z"></path><path style="fill:#ffffff;stroke:#ff0000" id="font" transform="translate(3259.8425196850394,2905.511811023622)" d="m 0,17.716535433070867 71.4763779527559,0 0,-17.716535433070867 72.00787401574803,0 0,17.716535433070867 71.29921259842519,0 0,-17.716535433070867 72.00787401574803,0 0,17.716535433070867 71.29921259842519,0 0,-17.716535433070867 72.00787401574803,0 0,17.716535433070867 71.29921259842519,0 0,-17.716535433070867 72.00787401574803,0 0,17.716535433070867 71.29921259842519,0 0,-17.716535433070867 72.00787401574803,0 0,17.716535433070867 71.29921259842519,0 0,-17.716535433070867 72.00787401574803,0 0,17.716535433070867 71.29921259842519,0 0,-17.716535433070867 72.00787401574803,0 0,17.716535433070867 71.29921259842519,0 0,-17.716535433070867 72.00787401574803,0 0,17.716535433070867 71.29921259842519,0 0,-17.716535433070867 72.00787401574803,0 0,17.716535433070867 71.29921259842519,0 0,-17.716535433070867 72.00787401574803,0 0,17.716535433070867 71.29921259842519,0 0,-17.716535433070867 72.00787401574803,0 0,17.716535433070867 71.29921259842519,0 0,-17.716535433070867 72.00787401574803,0 0,17.716535433070867 71.29921259842519,0 0,-17.716535433070867 72.00787401574803,0 0,17.716535433070867 71.29921259842519,0 0,-17.716535433070867 72.00787401574803,0 0,17.716535433070867 71.29921259842519,0 0,-17.716535433070867 72.00787401574803,0 0,17.716535433070867 71.29921259842519,0 0,-17.716535433070867 72.00787401574803,0 0,17.716535433070867 71.29921259842519,0 0,-17.716535433070867 72.00787401574803,0 0,17.716535433070867 71.29921259842519,0 0,-17.716535433070867 72.00787401574803,0 0,17.716535433070867 71.29921259842519,0 0,-17.716535433070867 72.00787401574803,0 0,17.716535433070867 71.29921259842519,0 0,-17.716535433070867 72.00787401574803,0 0,17.716535433070867 71.29921259842519,0 0,-17.716535433070867 72.00787401574803,0 0,17.716535433070867 71.29921259842519,0 0,-17.716535433070867 72.00787401574803,0 0,17.716535433070867 71.4763779527559,0 0,71.04330708661418 -17.716535433070867,0 0,70.51181102362204 17.716535433070867,0 0,71.22047244094489 -17.716535433070867,0 0,70.51181102362204 17.716535433070867,0 0,71.22047244094489 -17.716535433070867,0 0,70.51181102362204 17.716535433070867,0 0,71.22047244094489 -17.716535433070867,0 0,70.51181102362204 17.716535433070867,0 0,71.22047244094489 -17.716535433070867,0 0,70.51181102362204 17.716535433070867,0 0,71.22047244094489 -17.716535433070867,0 0,70.51181102362204 17.716535433070867,0 0,71.22047244094489 -17.716535433070867,0 0,70.51181102362204 17.716535433070867,0 0,71.22047244094489 -17.716535433070867,0 0,70.51181102362204 17.716535433070867,0 0,71.22047244094489 -17.716535433070867,0 0,70.51181102362204 17.716535433070867,0 0,71.22047244094489 -17.716535433070867,0 0,70.51181102362204 17.716535433070867,0 0,71.22047244094489 -17.716535433070867,0 0,70.51181102362204 17.716535433070867,0 0,71.22047244094489 -17.716535433070867,0 0,70.51181102362204 17.716535433070867,0 0,71.22047244094489 -17.716535433070867,0 0,70.51181102362204 17.716535433070867,0 0,71.22047244094489 -17.716535433070867,0 0,70.51181102362204 17.716535433070867,0 0,71.22047244094489 -17.716535433070867,0 0,70.51181102362204 17.716535433070867,0 0,71.22047244094489 -17.716535433070867,0 0,70.51181102362204 17.716535433070867,0 0,71.22047244094489 -17.716535433070867,0 0,70.51181102362204 17.716535433070867,0 0,71.04330708661418 -71.4763779527559,0 0,17.716535433070867 -72.00787401574803,0 0,-17.716535433070867 -71.29921259842519,0 0,17.716535433070867 -72.00787401574803,0 0,-17.716535433070867 -71.29921259842519,0 0,17.716535433070867 -72.00787401574803,0 0,-17.716535433070867 -71.29921259842519,0 0,17.716535433070867 -72.00787401574803,0 0,-17.716535433070867 -71.29921259842519,0 0,17.716535433070867 -72.00787401574803,0 0,-17.716535433070867 -71.29921259842519,0 0,17.716535433070867 -72.00787401574803,0 0,-17.716535433070867 -71.29921259842519,0 0,17.716535433070867 -72.00787401574803,0 0,-17.716535433070867 -71.29921259842519,0 0,17.716535433070867 -72.00787401574803,0 0,-17.716535433070867 -71.29921259842519,0 0,17.716535433070867 -72.00787401574803,0 0,-17.716535433070867 -71.29921259842519,0 0,17.716535433070867 -72.00787401574803,0 0,-17.716535433070867 -71.29921259842519,0 0,17.716535433070867 -72.00787401574803,0 0,-17.716535433070867 -71.29921259842519,0 0,17.716535433070867 -72.00787401574803,0 0,-17.716535433070867 -71.29921259842519,0 0,17.716535433070867 -72.00787401574803,0 0,-17.716535433070867 -71.29921259842519,0 0,17.716535433070867 -72.00787401574803,0 0,-17.716535433070867 -71.29921259842519,0 0,17.716535433070867 -72.00787401574803,0 0,-17.716535433070867 -71.29921259842519,0 0,17.716535433070867 -72.00787401574803,0 0,-17.716535433070867 -71.29921259842519,0 0,17.716535433070867 -72.00787401574803,0 0,-17.716535433070867 -71.29921259842519,0 0,17.716535433070867 -72.00787401574803,0 0,-17.716535433070867 -71.29921259842519,0 0,17.716535433070867 -72.00787401574803,0 0,-17.716535433070867 -71.29921259842519,0 0,17.716535433070867 -72.00787401574803,0 0,-17.716535433070867 -71.29921259842519,0 0,17.716535433070867 -72.00787401574803,0 0,-17.716535433070867 -71.29921259842519,0 0,17.716535433070867 -72.00787401574803,0 0,-17.716535433070867 -71.4763779527559,0 0,-71.04330708661418 17.716535433070867,0 0,-70.51181102362204 -17.716535433070867,0 0,-71.22047244094489 17.716535433070867,0 0,-70.51181102362204 -17.716535433070867,0 0,-71.22047244094489 17.716535433070867,0 0,-70.51181102362204 -17.716535433070867,0 0,-71.22047244094489 17.716535433070867,0 0,-70.51181102362204 -17.716535433070867,0 0,-71.22047244094489 17.716535433070867,0 0,-70.51181102362204 -17.716535433070867,0 0,-71.22047244094489 17.716535433070867,0 0,-70.51181102362204 -17.716535433070867,0 0,-71.22047244094489 17.716535433070867,0 0,-70.51181102362204 -17.716535433070867,0 0,-71.22047244094489 17.716535433070867,0 0,-70.51181102362204 -17.716535433070867,0 0,-71.22047244094489 17.716535433070867,0 0,-70.51181102362204 -17.716535433070867,0 0,-71.22047244094489 17.716535433070867,0 0,-70.51181102362204 -17.716535433070867,0 0,-71.22047244094489 17.716535433070867,0 0,-70.51181102362204 -17.716535433070867,0 0,-71.22047244094489 17.716535433070867,0 0,-70.51181102362204 -17.716535433070867,0 0,-71.22047244094489 17.716535433070867,0 0,-70.51181102362204 -17.716535433070867,0 0,-71.22047244094489 17.716535433070867,0 0,-70.51181102362204 -17.716535433070867,0 0,-71.22047244094489 17.716535433070867,0 0,-70.51181102362204 -17.716535433070867,0 0,-71.22047244094489 17.716535433070867,0 0,-70.51181102362204 -17.716535433070867,0 0,-71.22047244094489 17.716535433070867,0 0,-70.51181102362204 -17.716535433070867,0 0,-71.04330708661418 z"></path><path style="fill:#ffffff;stroke:#ff0000" id="back" transform="translate(17.716535433070867,2905.511811023622)" d="m 0,17.716535433070867 71.4763779527559,0 0,-17.716535433070867 72.00787401574803,0 0,17.716535433070867 71.29921259842519,0 0,-17.716535433070867 72.00787401574803,0 0,17.716535433070867 71.29921259842519,0 0,-17.716535433070867 72.00787401574803,0 0,17.716535433070867 71.29921259842519,0 0,-17.716535433070867 72.00787401574803,0 0,17.716535433070867 71.29921259842519,0 0,-17.716535433070867 72.00787401574803,0 0,17.716535433070867 71.29921259842519,0 0,-17.716535433070867 72.00787401574803,0 0,17.716535433070867 71.29921259842519,0 0,-17.716535433070867 72.00787401574803,0 0,17.716535433070867 71.29921259842519,0 0,-17.716535433070867 72.00787401574803,0 0,17.716535433070867 71.29921259842519,0 0,-17.716535433070867 72.00787401574803,0 0,17.716535433070867 71.29921259842519,0 0,-17.716535433070867 72.00787401574803,0 0,17.716535433070867 71.29921259842519,0 0,-17.716535433070867 72.00787401574803,0 0,17.716535433070867 71.29921259842519,0 0,-17.716535433070867 72.00787401574803,0 0,17.716535433070867 71.29921259842519,0 0,-17.716535433070867 72.00787401574803,0 0,17.716535433070867 71.29921259842519,0 0,-17.716535433070867 72.00787401574803,0 0,17.716535433070867 71.29921259842519,0 0,-17.716535433070867 72.00787401574803,0 0,17.716535433070867 71.29921259842519,0 0,-17.716535433070867 72.00787401574803,0 0,17.716535433070867 71.29921259842519,0 0,-17.716535433070867 72.00787401574803,0 0,17.716535433070867 71.29921259842519,0 0,-17.716535433070867 72.00787401574803,0 0,17.716535433070867 71.29921259842519,0 0,-17.716535433070867 72.00787401574803,0 0,17.716535433070867 71.29921259842519,0 0,-17.716535433070867 72.00787401574803,0 0,17.716535433070867 71.29921259842519,0 0,-17.716535433070867 72.00787401574803,0 0,17.716535433070867 71.29921259842519,0 0,-17.716535433070867 72.00787401574803,0 0,17.716535433070867 71.4763779527559,0 0,71.04330708661418 -17.716535433070867,0 0,70.51181102362204 17.716535433070867,0 0,71.22047244094489 -17.716535433070867,0 0,70.51181102362204 17.716535433070867,0 0,71.22047244094489 -17.716535433070867,0 0,70.51181102362204 17.716535433070867,0 0,71.22047244094489 -17.716535433070867,0 0,70.51181102362204 17.716535433070867,0 0,71.22047244094489 -17.716535433070867,0 0,70.51181102362204 17.716535433070867,0 0,71.22047244094489 -17.716535433070867,0 0,70.51181102362204 17.716535433070867,0 0,71.22047244094489 -17.716535433070867,0 0,70.51181102362204 17.716535433070867,0 0,71.22047244094489 -17.716535433070867,0 0,70.51181102362204 17.716535433070867,0 0,71.22047244094489 -17.716535433070867,0 0,70.51181102362204 17.716535433070867,0 0,71.22047244094489 -17.716535433070867,0 0,70.51181102362204 17.716535433070867,0 0,71.22047244094489 -17.716535433070867,0 0,70.51181102362204 17.716535433070867,0 0,71.22047244094489 -17.716535433070867,0 0,70.51181102362204 17.716535433070867,0 0,71.22047244094489 -17.716535433070867,0 0,70.51181102362204 17.716535433070867,0 0,71.22047244094489 -17.716535433070867,0 0,70.51181102362204 17.716535433070867,0 0,71.22047244094489 -17.716535433070867,0 0,70.51181102362204 17.716535433070867,0 0,71.22047244094489 -17.716535433070867,0 0,70.51181102362204 17.716535433070867,0 0,71.22047244094489 -17.716535433070867,0 0,70.51181102362204 17.716535433070867,0 0,71.04330708661418 -71.4763779527559,0 0,17.716535433070867 -72.00787401574803,0 0,-17.716535433070867 -71.29921259842519,0 0,17.716535433070867 -72.00787401574803,0 0,-17.716535433070867 -71.29921259842519,0 0,17.716535433070867 -72.00787401574803,0 0,-17.716535433070867 -71.29921259842519,0 0,17.716535433070867 -72.00787401574803,0 0,-17.716535433070867 -71.29921259842519,0 0,17.716535433070867 -72.00787401574803,0 0,-17.716535433070867 -71.29921259842519,0 0,17.716535433070867 -72.00787401574803,0 0,-17.716535433070867 -71.29921259842519,0 0,17.716535433070867 -72.00787401574803,0 0,-17.716535433070867 -71.29921259842519,0 0,17.716535433070867 -72.00787401574803,0 0,-17.716535433070867 -71.29921259842519,0 0,17.716535433070867 -72.00787401574803,0 0,-17.716535433070867 -71.29921259842519,0 0,17.716535433070867 -72.00787401574803,0 0,-17.716535433070867 -71.29921259842519,0 0,17.716535433070867 -72.00787401574803,0 0,-17.716535433070867 -71.29921259842519,0 0,17.716535433070867 -72.00787401574803,0 0,-17.716535433070867 -71.29921259842519,0 0,17.716535433070867 -72.00787401574803,0 0,-17.716535433070867 -71.29921259842519,0 0,17.716535433070867 -72.00787401574803,0 0,-17.716535433070867 -71.29921259842519,0 0,17.716535433070867 -72.00787401574803,0 0,-17.716535433070867 -71.29921259842519,0 0,17.716535433070867 -72.00787401574803,0 0,-17.716535433070867 -71.29921259842519,0 0,17.716535433070867 -72.00787401574803,0 0,-17.716535433070867 -71.29921259842519,0 0,17.716535433070867 -72.00787401574803,0 0,-17.716535433070867 -71.29921259842519,0 0,17.716535433070867 -72.00787401574803,0 0,-17.716535433070867 -71.29921259842519,0 0,17.716535433070867 -72.00787401574803,0 0,-17.716535433070867 -71.29921259842519,0 0,17.716535433070867 -72.00787401574803,0 0,-17.716535433070867 -71.29921259842519,0 0,17.716535433070867 -72.00787401574803,0 0,-17.716535433070867 -71.4763779527559,0 0,-71.04330708661418 17.716535433070867,0 0,-70.51181102362204 -17.716535433070867,0 0,-71.22047244094489 17.716535433070867,0 0,-70.51181102362204 -17.716535433070867,0 0,-71.22047244094489 17.716535433070867,0 0,-70.51181102362204 -17.716535433070867,0 0,-71.22047244094489 17.716535433070867,0 0,-70.51181102362204 -17.716535433070867,0 0,-71.22047244094489 17.716535433070867,0 0,-70.51181102362204 -17.716535433070867,0 0,-71.22047244094489 17.716535433070867,0 0,-70.51181102362204 -17.716535433070867,0 0,-71.22047244094489 17.716535433070867,0 0,-70.51181102362204 -17.716535433070867,0 0,-71.22047244094489 17.716535433070867,0 0,-70.51181102362204 -17.716535433070867,0 0,-71.22047244094489 17.716535433070867,0 0,-70.51181102362204 -17.716535433070867,0 0,-71.22047244094489 17.716535433070867,0 0,-70.51181102362204 -17.716535433070867,0 0,-71.22047244094489 17.716535433070867,0 0,-70.51181102362204 -17.716535433070867,0 0,-71.22047244094489 17.716535433070867,0 0,-70.51181102362204 -17.716535433070867,0 0,-71.22047244094489 17.716535433070867,0 0,-70.51181102362204 -17.716535433070867,0 0,-71.22047244094489 17.716535433070867,0 0,-70.51181102362204 -17.716535433070867,0 0,-71.22047244094489 17.716535433070867,0 0,-70.51181102362204 -17.716535433070867,0 0,-71.22047244094489 17.716535433070867,0 0,-70.51181102362204 -17.716535433070867,0 0,-71.22047244094489 17.716535433070867,0 0,-70.51181102362204 -17.716535433070867,0 0,-71.04330708661418 z"></path><path style="fill:#ffffff;stroke:#ff0000" id="left_side" transform="translate(2905.511811023622,5438.976377952757)" d="m 17.716535433070867,17.716535433070867 55.69806178073895,0 0,-17.716535433070867 73.94609327680196,0 0,17.716535433070867 73.23743185947912,0 0,-17.716535433070867 73.94609327680196,0 0,17.716535433070867 73.23743185947912,0 0,-17.716535433070867 73.94609327680196,0 0,17.716535433070867 73.23743185947912,0 0,-17.716535433070867 73.94609327680196,0 0,17.716535433070867 73.23743185947912,0 0,-17.716535433070867 73.94609327680196,0 0,17.716535433070867 73.23743185947912,0 0,-17.716535433070867 73.94609327680196,0 0,17.716535433070867 73.23743185947912,0 0,-17.716535433070867 73.94609327680196,0 0,17.716535433070867 73.23743185947912,0 0,-17.716535433070867 73.94609327680196,0 0,17.716535433070867 73.23743185947912,0 0,-17.716535433070867 73.94609327680196,0 0,17.716535433070867 73.23743185947912,0 0,-17.716535433070867 73.94609327680196,0 0,17.716535433070867 73.23743185947912,0 0,-17.716535433070867 73.94609327680196,0 0,17.716535433070867 73.23743185947912,0 0,-17.716535433070867 73.94609327680196,0 0,17.716535433070867 73.23743185947912,0 0,-17.716535433070867 73.94609327680196,0 0,17.716535433070867 73.23743185947912,0 0,-17.716535433070867 73.94609327680196,0 0,17.716535433070867 73.23743185947912,0 0,-17.716535433070867 73.94609327680196,0 0,17.716535433070867 73.23743185947912,0 0,-17.716535433070867 73.94609327680196,0 0,17.716535433070867 73.23743185947912,0 0,-17.716535433070867 73.94609327680196,0 0,17.716535433070867 73.23743185947912,0 0,-17.716535433070867 73.94609327680196,0 0,17.716535433070867 73.23743185947912,0 0,-17.716535433070867 73.94609327680196,0 0,17.716535433070867 55.69806178073895,0 0,70.68897637795276 17.716535433070867,0 0,71.22047244094489 -17.716535433070867,0 0,70.51181102362204 17.716535433070867,0 0,71.22047244094489 -17.716535433070867,0 0,70.51181102362204 17.716535433070867,0 0,71.22047244094489 -17.716535433070867,0 0,70.51181102362204 17.716535433070867,0 0,71.22047244094489 -17.716535433070867,0 0,70.51181102362204 17.716535433070867,0 0,71.22047244094489 -17.716535433070867,0 0,70.51181102362204 17.716535433070867,0 0,71.22047244094489 -17.716535433070867,0 0,70.51181102362204 17.716535433070867,0 0,71.22047244094489 -17.716535433070867,0 0,70.51181102362204 17.716535433070867,0 0,71.22047244094489 -17.716535433070867,0 0,70.51181102362204 17.716535433070867,0 0,71.22047244094489 -17.716535433070867,0 0,70.51181102362204 17.716535433070867,0 0,71.22047244094489 -17.716535433070867,0 0,70.51181102362204 17.716535433070867,0 0,71.22047244094489 -17.716535433070867,0 0,70.51181102362204 17.716535433070867,0 0,71.22047244094489 -17.716535433070867,0 0,70.51181102362204 17.716535433070867,0 0,71.22047244094489 -17.716535433070867,0 0,70.51181102362204 17.716535433070867,0 0,71.22047244094489 -17.716535433070867,0 0,70.51181102362204 17.716535433070867,0 0,71.22047244094489 -17.716535433070867,0 0,70.51181102362204 17.716535433070867,0 0,71.22047244094489 -17.716535433070867,0 0,70.51181102362204 17.716535433070867,0 0,71.22047244094489 -17.716535433070867,0 0,70.68897637795276 -55.69806178073895,0 0,17.716535433070867 -73.94609327680196,0 0,-17.716535433070867 -73.23743185947912,0 0,17.716535433070867 -73.94609327680196,0 0,-17.716535433070867 -73.23743185947912,0 0,17.716535433070867 -73.94609327680196,0 0,-17.716535433070867 -73.23743185947912,0 0,17.716535433070867 -73.94609327680196,0 0,-17.716535433070867 -73.23743185947912,0 0,17.716535433070867 -73.94609327680196,0 0,-17.716535433070867 -73.23743185947912,0 0,17.716535433070867 -73.94609327680196,0 0,-17.716535433070867 -73.23743185947912,0 0,17.716535433070867 -73.94609327680196,0 0,-17.716535433070867 -73.23743185947912,0 0,17.716535433070867 -73.94609327680196,0 0,-17.716535433070867 -73.23743185947912,0 0,17.716535433070867 -73.94609327680196,0 0,-17.716535433070867 -73.23743185947912,0 0,17.716535433070867 -73.94609327680196,0 0,-17.716535433070867 -73.23743185947912,0 0,17.716535433070867 -73.94609327680196,0 0,-17.716535433070867 -73.23743185947912,0 0,17.716535433070867 -73.94609327680196,0 0,-17.716535433070867 -73.23743185947912,0 0,17.716535433070867 -73.94609327680196,0 0,-17.716535433070867 -73.23743185947912,0 0,17.716535433070867 -73.94609327680196,0 0,-17.716535433070867 -73.23743185947912,0 0,17.716535433070867 -73.94609327680196,0 0,-17.716535433070867 -73.23743185947912,0 0,17.716535433070867 -73.94609327680196,0 0,-17.716535433070867 -73.23743185947912,0 0,17.716535433070867 -73.94609327680196,0 0,-17.716535433070867 -73.23743185947912,0 0,17.716535433070867 -73.94609327680196,0 0,-17.716535433070867 -73.23743185947912,0 0,17.716535433070867 -73.94609327680196,0 0,-17.716535433070867 -55.69806178073895,0 0,-70.68897637795276 -17.716535433070867,0 0,-71.22047244094489 17.716535433070867,0 0,-70.51181102362204 -17.716535433070867,0 0,-71.22047244094489 17.716535433070867,0 0,-70.51181102362204 -17.716535433070867,0 0,-71.22047244094489 17.716535433070867,0 0,-70.51181102362204 -17.716535433070867,0 0,-71.22047244094489 17.716535433070867,0 0,-70.51181102362204 -17.716535433070867,0 0,-71.22047244094489 17.716535433070867,0 0,-70.51181102362204 -17.716535433070867,0 0,-71.22047244094489 17.716535433070867,0 0,-70.51181102362204 -17.716535433070867,0 0,-71.22047244094489 17.716535433070867,0 0,-70.51181102362204 -17.716535433070867,0 0,-71.22047244094489 17.716535433070867,0 0,-70.51181102362204 -17.716535433070867,0 0,-71.22047244094489 17.716535433070867,0 0,-70.51181102362204 -17.716535433070867,0 0,-71.22047244094489 17.716535433070867,0 0,-70.51181102362204 -17.716535433070867,0 0,-71.22047244094489 17.716535433070867,0 0,-70.51181102362204 -17.716535433070867,0 0,-71.22047244094489 17.716535433070867,0 0,-70.51181102362204 -17.716535433070867,0 0,-71.22047244094489 17.716535433070867,0 0,-70.51181102362204 -17.716535433070867,0 0,-71.22047244094489 17.716535433070867,0 0,-70.51181102362204 -17.716535433070867,0 0,-71.22047244094489 17.716535433070867,0 0,-70.51181102362204 -17.716535433070867,0 0,-71.22047244094489 17.716535433070867,0 0,-70.51181102362204 -17.716535433070867,0 0,-71.22047244094489 17.716535433070867,0 0,-70.68897637795276 z"></path><path style="fill:#ffffff;stroke:#ff0000" id="right_side" transform="translate(17.716535433070867,5438.976377952757)" d="m 17.716535433070867,17.716535433070867 55.69806178073895,0 0,-17.716535433070867 73.94609327680196,0 0,17.716535433070867 73.23743185947912,0 0,-17.716535433070867 73.94609327680196,0 0,17.716535433070867 73.23743185947912,0 0,-17.716535433070867 73.94609327680196,0 0,17.716535433070867 73.23743185947912,0 0,-17.716535433070867 73.94609327680196,0 0,17.716535433070867 73.23743185947912,0 0,-17.716535433070867 73.94609327680196,0 0,17.716535433070867 73.23743185947912,0 0,-17.716535433070867 73.94609327680196,0 0,17.716535433070867 73.23743185947912,0 0,-17.716535433070867 73.94609327680196,0 0,17.716535433070867 73.23743185947912,0 0,-17.716535433070867 73.94609327680196,0 0,17.716535433070867 73.23743185947912,0 0,-17.716535433070867 73.94609327680196,0 0,17.716535433070867 73.23743185947912,0 0,-17.716535433070867 73.94609327680196,0 0,17.716535433070867 73.23743185947912,0 0,-17.716535433070867 73.94609327680196,0 0,17.716535433070867 73.23743185947912,0 0,-17.716535433070867 73.94609327680196,0 0,17.716535433070867 73.23743185947912,0 0,-17.716535433070867 73.94609327680196,0 0,17.716535433070867 73.23743185947912,0 0,-17.716535433070867 73.94609327680196,0 0,17.716535433070867 73.23743185947912,0 0,-17.716535433070867 73.94609327680196,0 0,17.716535433070867 73.23743185947912,0 0,-17.716535433070867 73.94609327680196,0 0,17.716535433070867 73.23743185947912,0 0,-17.716535433070867 73.94609327680196,0 0,17.716535433070867 73.23743185947912,0 0,-17.716535433070867 73.94609327680196,0 0,17.716535433070867 73.23743185947912,0 0,-17.716535433070867 73.94609327680196,0 0,17.716535433070867 55.69806178073895,0 0,70.68897637795276 17.716535433070867,0 0,71.22047244094489 -17.716535433070867,0 0,70.51181102362204 17.716535433070867,0 0,71.22047244094489 -17.716535433070867,0 0,70.51181102362204 17.716535433070867,0 0,71.22047244094489 -17.716535433070867,0 0,70.51181102362204 17.716535433070867,0 0,71.22047244094489 -17.716535433070867,0 0,70.51181102362204 17.716535433070867,0 0,71.22047244094489 -17.716535433070867,0 0,70.51181102362204 17.716535433070867,0 0,71.22047244094489 -17.716535433070867,0 0,70.51181102362204 17.716535433070867,0 0,71.22047244094489 -17.716535433070867,0 0,70.51181102362204 17.716535433070867,0 0,71.22047244094489 -17.716535433070867,0 0,70.51181102362204 17.716535433070867,0 0,71.22047244094489 -17.716535433070867,0 0,70.51181102362204 17.716535433070867,0 0,71.22047244094489 -17.716535433070867,0 0,70.51181102362204 17.716535433070867,0 0,71.22047244094489 -17.716535433070867,0 0,70.51181102362204 17.716535433070867,0 0,71.22047244094489 -17.716535433070867,0 0,70.51181102362204 17.716535433070867,0 0,71.22047244094489 -17.716535433070867,0 0,70.51181102362204 17.716535433070867,0 0,71.22047244094489 -17.716535433070867,0 0,70.51181102362204 17.716535433070867,0 0,71.22047244094489 -17.716535433070867,0 0,70.51181102362204 17.716535433070867,0 0,71.22047244094489 -17.716535433070867,0 0,70.51181102362204 17.716535433070867,0 0,71.22047244094489 -17.716535433070867,0 0,70.68897637795276 -55.69806178073895,0 0,17.716535433070867 -73.94609327680196,0 0,-17.716535433070867 -73.23743185947912,0 0,17.716535433070867 -73.94609327680196,0 0,-17.716535433070867 -73.23743185947912,0 0,17.716535433070867 -73.94609327680196,0 0,-17.716535433070867 -73.23743185947912,0 0,17.716535433070867 -73.94609327680196,0 0,-17.716535433070867 -73.23743185947912,0 0,17.716535433070867 -73.94609327680196,0 0,-17.716535433070867 -73.23743185947912,0 0,17.716535433070867 -73.94609327680196,0 0,-17.716535433070867 -73.23743185947912,0 0,17.716535433070867 -73.94609327680196,0 0,-17.716535433070867 -73.23743185947912,0 0,17.716535433070867 -73.94609327680196,0 0,-17.716535433070867 -73.23743185947912,0 0,17.716535433070867 -73.94609327680196,0 0,-17.716535433070867 -73.23743185947912,0 0,17.716535433070867 -73.94609327680196,0 0,-17.716535433070867 -73.23743185947912,0 0,17.716535433070867 -73.94609327680196,0 0,-17.716535433070867 -73.23743185947912,0 0,17.716535433070867 -73.94609327680196,0 0,-17.716535433070867 -73.23743185947912,0 0,17.716535433070867 -73.94609327680196,0 0,-17.716535433070867 -73.23743185947912,0 0,17.716535433070867 -73.94609327680196,0 0,-17.716535433070867 -73.23743185947912,0 0,17.716535433070867 -73.94609327680196,0 0,-17.716535433070867 -73.23743185947912,0 0,17.716535433070867 -73.94609327680196,0 0,-17.716535433070867 -73.23743185947912,0 0,17.716535433070867 -73.94609327680196,0 0,-17.716535433070867 -73.23743185947912,0 0,17.716535433070867 -73.94609327680196,0 0,-17.716535433070867 -73.23743185947912,0 0,17.716535433070867 -73.94609327680196,0 0,-17.716535433070867 -55.69806178073895,0 0,-70.68897637795276 -17.716535433070867,0 0,-71.22047244094489 17.716535433070867,0 0,-70.51181102362204 -17.716535433070867,0 0,-71.22047244094489 17.716535433070867,0 0,-70.51181102362204 -17.716535433070867,0 0,-71.22047244094489 17.716535433070867,0 0,-70.51181102362204 -17.716535433070867,0 0,-71.22047244094489 17.716535433070867,0 0,-70.51181102362204 -17.716535433070867,0 0,-71.22047244094489 17.716535433070867,0 0,-70.51181102362204 -17.716535433070867,0 0,-71.22047244094489 17.716535433070867,0 0,-70.51181102362204 -17.716535433070867,0 0,-71.22047244094489 17.716535433070867,0 0,-70.51181102362204 -17.716535433070867,0 0,-71.22047244094489 17.716535433070867,0 0,-70.51181102362204 -17.716535433070867,0 0,-71.22047244094489 17.716535433070867,0 0,-70.51181102362204 -17.716535433070867,0 0,-71.22047244094489 17.716535433070867,0 0,-70.51181102362204 -17.716535433070867,0 0,-71.22047244094489 17.716535433070867,0 0,-70.51181102362204 -17.716535433070867,0 0,-71.22047244094489 17.716535433070867,0 0,-70.51181102362204 -17.716535433070867,0 0,-71.22047244094489 17.716535433070867,0 0,-70.51181102362204 -17.716535433070867,0 0,-71.22047244094489 17.716535433070867,0 0,-70.51181102362204 -17.716535433070867,0 0,-71.22047244094489 17.716535433070867,0 0,-70.51181102362204 -17.716535433070867,0 0,-71.22047244094489 17.716535433070867,0 0,-70.51181102362204 -17.716535433070867,0 0,-71.22047244094489 17.716535433070867,0 0,-70.68897637795276 z"></path></g>
		</svg>
	