<?xml version="1.0" encoding="UTF-8" standalone="no"?>
<svg
   xmlns:dc="http://purl.org/dc/elements/1.1/"
   xmlns:cc="http://creativecommons.org/ns#"
   xmlns:rdf="http://www.w3.org/1999/02/22-rdf-syntax-ns#"
   xmlns:svg="http://www.w3.org/2000/svg"
   xmlns="http://www.w3.org/2000/svg"
   xmlns:sodipodi="http://sodipodi.sourceforge.net/DTD/sodipodi-0.dtd"
   xmlns:inkscape="http://www.inkscape.org/namespaces/inkscape"
   width="698.0314960629921"
   height="861.0236220472441"
   id="box"
   version="1.1"
   inkscape:version="0.92.4 (5da689c313, 2019-01-14)"
   sodipodi:docname="box_91x81x71_5mm(1).svg">
  <defs
     id="defs4" />
  <sodipodi:namedview
     id="base"
     pagecolor="#ffffff"
     bordercolor="#666666"
     borderopacity="1.0"
     inkscape:pageopacity="0.0"
     inkscape:pageshadow="2"
     inkscape:document-units="mm"
     inkscape:current-layer="layer1"
     showgrid="false"
     fit-margin-top="0"
     fit-margin-left="0"
     fit-margin-right="0"
     fit-margin-bottom="0"
     units="mm"
     inkscape:window-maximized="1"
     inkscape:zoom="0.74097851"
     inkscape:cx="349.01575"
     inkscape:cy="430.51181"
     inkscape:window-width="1440"
     inkscape:window-height="837"
     inkscape:window-x="-8"
     inkscape:window-y="-8" />
  <metadata
     id="metadata7">
    <rdf:rdf>
      <cc:work
         rdf:about="">
        <dc:format>image/svg+xml</dc:format>
        <dc:type
           rdf:resource="http://purl.org/dc/dcmitype/StillImage" />
        <dc:title />
      </cc:work>
    </rdf:rdf>
    <rdf:RDF>
      <cc:Work
         rdf:about="">
        <dc:format>image/svg+xml</dc:format>
        <dc:type
           rdf:resource="http://purl.org/dc/dcmitype/StillImage" />
      </cc:Work>
    </rdf:RDF>
  </metadata>
  <g
     inkscape:label="Calque 1"
     inkscape:groupmode="layer"
     id="layer1">
    <path
       style="fill:#ffffff;stroke:#ff0000"
       id="bottom"
       transform="translate(17.716535433070867,17.716535433070867)"
       d="m 0,0 64.66535433070867,0 0,17.716535433070867 64.13385826771653,0 0,-17.716535433070867 64.84251968503938,0 0,17.716535433070867 64.13385826771653,0 0,-17.716535433070867 64.66535433070867,0 0,57.57874015748032 -17.716535433070867,0 0,57.047244094488185 17.716535433070867,0 0,57.75590551181103 -17.716535433070867,0 0,57.047244094488185 17.716535433070867,0 0,57.57874015748032 -64.66535433070867,0 0,-17.716535433070867 -64.13385826771653,0 0,17.716535433070867 -64.84251968503938,0 0,-17.716535433070867 -64.13385826771653,0 0,17.716535433070867 -64.66535433070867,0 0,-57.57874015748032 17.716535433070867,0 0,-57.047244094488185 -17.716535433070867,0 0,-57.75590551181103 17.716535433070867,0 0,-57.047244094488185 -17.716535433070867,0 0,-57.57874015748032 z" />
    <path
       style="fill:#ffffff;stroke:#ff0000"
       id="top"
       transform="translate(357.8740157480315,17.716535433070867)"
       d="m 0,0 64.66535433070867,0 0,17.716535433070867 64.13385826771653,0 0,-17.716535433070867 64.84251968503938,0 0,17.716535433070867 64.13385826771653,0 0,-17.716535433070867 64.66535433070867,0 0,57.57874015748032 -17.716535433070867,0 0,57.047244094488185 17.716535433070867,0 0,57.75590551181103 -17.716535433070867,0 0,57.047244094488185 17.716535433070867,0 0,57.57874015748032 -64.66535433070867,0 0,-17.716535433070867 -64.13385826771653,0 0,17.716535433070867 -64.84251968503938,0 0,-17.716535433070867 -64.13385826771653,0 0,17.716535433070867 -64.66535433070867,0 0,-57.57874015748032 17.716535433070867,0 0,-57.047244094488185 -17.716535433070867,0 0,-57.75590551181103 17.716535433070867,0 0,-57.047244094488185 -17.716535433070867,0 0,-57.57874015748032 z" />
    <path
       style="fill:#ffffff;stroke:#ff0000"
       id="font"
       transform="translate(357.8740157480315,322.4409448818898)"
       d="m 0,17.716535433070867 64.31102362204724,0 0,-17.716535433070867 64.84251968503938,0 0,17.716535433070867 64.13385826771653,0 0,-17.716535433070867 64.84251968503938,0 0,17.716535433070867 64.31102362204724,0 0,72.2244094488189 -17.716535433070867,0 0,71.69291338582677 17.716535433070867,0 0,72.2244094488189 -64.31102362204724,0 0,17.716535433070867 -64.84251968503938,0 0,-17.716535433070867 -64.13385826771653,0 0,17.716535433070867 -64.84251968503938,0 0,-17.716535433070867 -64.31102362204724,0 0,-72.2244094488189 17.716535433070867,0 0,-71.69291338582677 -17.716535433070867,0 0,-72.2244094488189 z" />
    <path
       style="fill:#ffffff;stroke:#ff0000"
       id="back"
       transform="translate(17.716535433070867,322.4409448818898)"
       d="m 0,17.716535433070867 64.31102362204724,0 0,-17.716535433070867 64.84251968503938,0 0,17.716535433070867 64.13385826771653,0 0,-17.716535433070867 64.84251968503938,0 0,17.716535433070867 64.31102362204724,0 0,72.2244094488189 -17.716535433070867,0 0,71.69291338582677 17.716535433070867,0 0,72.2244094488189 -64.31102362204724,0 0,17.716535433070867 -64.84251968503938,0 0,-17.716535433070867 -64.13385826771653,0 0,17.716535433070867 -64.84251968503938,0 0,-17.716535433070867 -64.31102362204724,0 0,-72.2244094488189 17.716535433070867,0 0,-71.69291338582677 -17.716535433070867,0 0,-72.2244094488189 z" />
    <path
       style="fill:#ffffff;stroke:#ff0000"
       id="left_side"
       d="m 17.716535433070867,17.716535433070867 39.50787401574803,0 0,-17.716535433070867 57.75590551181103,0 0,17.716535433070867 57.047244094488185,0 0,-17.716535433070867 57.75590551181103,0 0,17.716535433070867 39.50787401574803,0 0,71.87007874015748 17.716535433070867,0 0,72.40157480314961 -17.716535433070867,0 0,71.87007874015748 -39.50787401574803,0 0,17.716535433070867 -57.75590551181103,0 0,-17.716535433070867 -57.047244094488185,0 0,17.716535433070867 -57.75590551181103,0 0,-17.716535433070867 -39.50787401574803,0 0,-71.87007874015748 -17.716535433070867,0 0,-72.40157480314961 17.716535433070867,0 0,-71.87007874015748 z"
       transform="translate(322.4409448818898,591.732283464567)" />
    <path
       style="fill:#ffffff;stroke:#ff0000"
       id="right_side"
       d="m 17.716535433070867,17.716535433070867 39.50787401574803,0 0,-17.716535433070867 57.75590551181103,0 0,17.716535433070867 57.047244094488185,0 0,-17.716535433070867 57.75590551181103,0 0,17.716535433070867 39.50787401574803,0 0,71.87007874015748 17.716535433070867,0 0,72.40157480314961 -17.716535433070867,0 0,71.87007874015748 -39.50787401574803,0 0,17.716535433070867 -57.75590551181103,0 0,-17.716535433070867 -57.047244094488185,0 0,17.716535433070867 -57.75590551181103,0 0,-17.716535433070867 -39.50787401574803,0 0,-71.87007874015748 -17.716535433070867,0 0,-72.40157480314961 17.716535433070867,0 0,-71.87007874015748 z"
       transform="translate(17.716535433070867,591.732283464567)" />
    <rect
       style="fill:none;stroke:#ff0000;stroke-opacity:1"
       id="rect4690"
       width="18.897638"
       height="37.795277"
       x="235.79016"
       y="136.50476" />
    <rect
       style="fill:none;stroke:#ff0000;stroke-opacity:1"
       id="rect4694"
       width="49.133858"
       height="34.015747"
       x="505.87708"
       y="645.23987" />
    <rect
       style="fill:none;stroke:#ff0000;stroke-opacity:1"
       id="rect4696"
       x="148.459"
       y="682.78937"
       height="56.692913"
       width="26.456694" />
  </g>
</svg>
