<?xml version="1.0" encoding="UTF-8" standalone="no"?>
		<svg xmlns:dc="http://purl.org/dc/elements/1.1/" xmlns:cc="http://creativecommons.org/ns#" xmlns:rdf="http://www.w3.org/1999/02/22-rdf-syntax-ns#" xmlns:svg="http://www.w3.org/2000/svg" xmlns="http://www.w3.org/2000/svg" xmlns:sodipodi="http://sodipodi.sourceforge.net/DTD/sodipodi-0.dtd" xmlns:inkscape="http://www.inkscape.org/namespaces/inkscape" width="698.0314960629921" height="861.0236220472441" id="box" version="1.1" inkscape:version="0.48.3.1 r9886" sodipodi:docname="dessin.svg">
			<defs id="defs4"></defs>
			<sodipodi:namedview id="base" pagecolor="#ffffff" bordercolor="#666666" borderopacity="1.0" inkscape:pageopacity="0.0" inkscape:pageshadow="2" inkscape:document-units="mm" inkscape:current-layer="layer1" showgrid="false" fit-margin-top="0" fit-margin-left="0" fit-margin-right="0" fit-margin-bottom="0" units="mm" inkscape:window-maximized="1"></sodipodi:namedview>
			<metadata id="metadata7">
				<rdf:rdf>
					<cc:work rdf:about="">
						<dc:format>image/svg+xml</dc:format>
						<dc:type rdf:resource="http://purl.org/dc/dcmitype/StillImage"></dc:type>
						<dc:title></dc:title>
					</cc:work>
				</rdf:rdf>
			</metadata>
			<g inkscape:label="Calque 1" inkscape:groupmode="layer" id="layer1"><path style="fill:#ffffff;stroke:#ff0000" id="bottom" transform="translate(17.716535433070867,17.716535433070867)" d="m 0,0 107.65748031496064,0 0,17.716535433070867 107.12598425196849,0 0,-17.716535433070867 107.65748031496064,0 0,95.84645669291339 -17.716535433070867,0 0,95.31496062992126 17.716535433070867,0 0,95.84645669291339 -107.65748031496064,0 0,-17.716535433070867 -107.12598425196849,0 0,17.716535433070867 -107.65748031496064,0 0,-95.84645669291339 17.716535433070867,0 0,-95.31496062992126 -17.716535433070867,0 0,-95.84645669291339 z"></path><path style="fill:#ffffff;stroke:#ff0000" id="top" transform="translate(357.8740157480315,17.716535433070867)" d="m 0,0 107.65748031496064,0 0,17.716535433070867 107.12598425196849,0 0,-17.716535433070867 107.65748031496064,0 0,95.84645669291339 -17.716535433070867,0 0,95.31496062992126 17.716535433070867,0 0,95.84645669291339 -107.65748031496064,0 0,-17.716535433070867 -107.12598425196849,0 0,17.716535433070867 -107.65748031496064,0 0,-95.84645669291339 17.716535433070867,0 0,-95.31496062992126 -17.716535433070867,0 0,-95.84645669291339 z"></path><path style="fill:#ffffff;stroke:#ff0000" id="font" transform="translate(357.8740157480315,322.4409448818898)" d="m 0,17.716535433070867 107.30314960629921,0 0,-17.716535433070867 107.83464566929135,0 0,17.716535433070867 107.30314960629921,0 0,72.2244094488189 -17.716535433070867,0 0,71.69291338582677 17.716535433070867,0 0,72.2244094488189 -107.30314960629921,0 0,17.716535433070867 -107.83464566929135,0 0,-17.716535433070867 -107.30314960629921,0 0,-72.2244094488189 17.716535433070867,0 0,-71.69291338582677 -17.716535433070867,0 0,-72.2244094488189 z"></path><path style="fill:#ffffff;stroke:#ff0000" id="back" transform="translate(17.716535433070867,322.4409448818898)" d="m 0,17.716535433070867 107.30314960629921,0 0,-17.716535433070867 107.83464566929135,0 0,17.716535433070867 107.30314960629921,0 0,72.2244094488189 -17.716535433070867,0 0,71.69291338582677 17.716535433070867,0 0,72.2244094488189 -107.30314960629921,0 0,17.716535433070867 -107.83464566929135,0 0,-17.716535433070867 -107.30314960629921,0 0,-72.2244094488189 17.716535433070867,0 0,-71.69291338582677 -17.716535433070867,0 0,-72.2244094488189 z"></path><path style="fill:#ffffff;stroke:#ff0000" id="left_side" transform="translate(322.4409448818898,591.732283464567)" d="m 17.716535433070867,17.716535433070867 77.77559055118111,0 0,-17.716535433070867 96.0236220472441,0 0,17.716535433070867 77.77559055118111,0 0,71.87007874015748 17.716535433070867,0 0,72.40157480314961 -17.716535433070867,0 0,71.87007874015748 -77.77559055118111,0 0,17.716535433070867 -96.0236220472441,0 0,-17.716535433070867 -77.77559055118111,0 0,-71.87007874015748 -17.716535433070867,0 0,-72.40157480314961 17.716535433070867,0 0,-71.87007874015748 z"></path><path style="fill:#ffffff;stroke:#ff0000" id="right_side" transform="translate(17.716535433070867,591.732283464567)" d="m 17.716535433070867,17.716535433070867 77.77559055118111,0 0,-17.716535433070867 96.0236220472441,0 0,17.716535433070867 77.77559055118111,0 0,71.87007874015748 17.716535433070867,0 0,72.40157480314961 -17.716535433070867,0 0,71.87007874015748 -77.77559055118111,0 0,17.716535433070867 -96.0236220472441,0 0,-17.716535433070867 -77.77559055118111,0 0,-71.87007874015748 -17.716535433070867,0 0,-72.40157480314961 17.716535433070867,0 0,-71.87007874015748 z"></path></g>
		</svg>
	